<?xml version="1.0" encoding="UTF-8" ?>
<!DOCTYPE svg PUBLIC "-//W3C//DTD SVG 1.1//EN" "http://www.w3.org/Graphics/SVG/1.1/DTD/svg11.dtd">
<svg width="1500pt" height="270pt" viewBox="0 0 1500 270" version="1.1" xmlns="http://www.w3.org/2000/svg">
<g id="#94ba33ff">
<path fill="#94ba33" opacity="1.00" d=" M 101.46 9.73 C 107.83 8.56 114.51 9.01 120.61 11.22 C 125.20 13.92 129.12 18.06 130.78 23.20 C 132.53 28.63 135.77 34.15 134.29 40.03 C 133.26 46.14 127.58 49.98 122.24 52.17 C 112.33 55.51 101.11 55.28 92.14 61.19 C 85.76 65.36 80.60 72.13 79.96 79.91 C 79.43 85.76 81.68 91.32 83.02 96.91 C 84.18 101.82 85.88 106.79 89.36 110.58 C 96.18 118.30 106.84 121.53 116.90 121.33 C 126.60 121.43 135.55 117.05 145.03 115.74 C 151.48 115.52 158.37 117.27 163.06 121.94 C 167.22 125.53 169.58 130.64 171.22 135.78 C 173.69 143.10 177.48 150.74 175.34 158.65 C 172.81 167.45 164.87 173.95 156.22 176.31 C 147.99 178.59 139.77 182.77 131.01 181.31 C 121.41 179.95 113.90 172.34 109.92 163.89 C 107.06 156.34 106.65 147.82 102.01 141.00 C 96.26 132.45 86.03 127.83 76.01 126.82 C 63.61 125.63 52.23 132.31 39.98 132.71 C 33.73 132.71 26.79 131.61 22.43 126.67 C 15.89 120.66 16.04 111.20 14.43 103.12 C 12.21 91.92 21.03 81.89 30.91 78.10 C 42.08 74.14 54.83 74.68 64.99 67.98 C 72.76 63.01 78.81 53.77 76.87 44.26 C 75.90 37.75 71.95 31.34 73.88 24.66 C 75.03 20.75 77.42 17.14 81.06 15.17 C 87.13 11.26 94.55 10.99 101.46 9.73 Z" />
</g>
<g id="#999999ff">
<path fill="#999999" opacity="1.00" d=" M 970.71 33.75 C 975.44 31.48 980.88 31.69 986.01 31.58 C 990.74 31.74 995.78 31.63 1000.10 33.83 C 1002.04 34.76 1002.36 37.05 1002.27 38.97 C 1002.25 60.50 1002.26 82.02 1002.26 103.55 C 1010.67 95.33 1021.09 88.45 1032.99 86.95 C 1044.71 85.60 1057.50 87.54 1066.88 95.17 C 1075.64 102.12 1080.18 113.09 1081.69 123.93 C 1083.51 136.55 1082.60 149.33 1082.82 162.02 C 1082.78 179.35 1082.91 196.69 1082.76 214.02 C 1082.78 217.08 1079.35 218.13 1076.89 218.57 C 1069.68 219.57 1062.28 219.61 1055.07 218.57 C 1052.59 218.14 1049.12 217.07 1049.18 213.98 C 1049.01 190.32 1049.22 166.65 1049.07 142.99 C 1049.00 135.44 1047.66 127.35 1042.60 121.43 C 1037.02 115.28 1027.22 114.44 1020.06 118.18 C 1012.84 121.91 1007.33 128.11 1002.26 134.32 C 1002.22 160.88 1002.35 187.46 1002.19 214.02 C 1002.19 217.21 998.56 218.14 996.05 218.60 C 989.09 219.59 981.96 219.56 975.00 218.67 C 972.31 218.23 968.35 217.27 968.47 213.83 C 968.35 155.53 968.47 97.23 968.41 38.93 C 968.27 36.96 968.70 34.65 970.71 33.75 Z" />
<path fill="#999999" opacity="1.00" d=" M 342.69 46.73 C 347.90 43.63 354.24 45.08 359.99 44.75 C 368.84 45.07 378.01 43.71 386.56 46.58 C 392.17 48.37 396.33 53.11 398.50 58.45 C 411.78 95.23 425.04 132.02 438.56 168.71 C 451.43 135.38 463.80 101.85 476.49 68.45 C 479.01 61.76 480.85 54.30 486.37 49.33 C 490.58 45.49 496.53 44.81 501.99 44.76 C 509.66 44.73 517.34 44.73 525.02 44.76 C 528.80 44.78 532.95 45.40 535.72 48.22 C 538.82 51.27 539.46 55.85 539.43 60.00 C 539.40 111.03 539.45 162.06 539.40 213.09 C 539.58 215.02 538.50 216.95 536.62 217.55 C 531.67 219.38 526.27 219.27 521.08 219.30 C 516.86 219.14 512.46 219.10 508.54 217.39 C 506.82 216.70 505.85 214.91 506.01 213.10 C 505.93 166.00 506.05 118.89 505.95 71.79 C 488.96 119.01 472.26 166.34 455.32 213.58 C 454.30 217.14 450.45 218.56 447.10 218.88 C 440.71 219.47 434.22 219.52 427.85 218.74 C 424.34 218.25 420.06 216.92 419.08 213.05 C 402.82 165.97 386.75 118.82 370.40 71.77 C 370.31 118.86 370.41 165.94 370.35 213.02 C 370.55 214.97 369.47 216.94 367.55 217.54 C 362.28 219.46 356.53 219.30 351.01 219.27 C 346.92 219.05 342.59 219.00 338.87 217.10 C 336.99 216.16 336.88 213.89 336.92 212.06 C 336.96 161.03 336.89 110.00 336.95 58.97 C 336.86 54.32 338.48 49.20 342.69 46.73 Z" />
<path fill="#999999" opacity="1.00" d=" M 618.35 87.71 C 636.78 85.15 657.12 86.24 672.98 96.95 C 686.46 106.04 693.19 122.13 695.06 137.80 C 697.39 157.47 695.85 178.82 684.84 195.86 C 676.12 209.61 660.78 218.12 644.89 220.46 C 627.52 222.83 608.66 221.80 593.29 212.61 C 580.37 205.04 572.48 191.06 569.73 176.64 C 566.49 159.48 566.78 141.25 572.71 124.68 C 577.39 111.47 587.03 99.95 599.68 93.73 C 605.53 90.74 611.88 88.80 618.35 87.71 M 626.46 113.69 C 620.10 114.63 614.07 118.01 610.29 123.25 C 604.11 131.80 602.58 142.72 602.48 153.02 C 602.65 163.30 603.38 174.17 608.81 183.20 C 612.41 189.30 619.01 193.33 626.00 194.18 C 635.49 195.63 646.36 193.51 652.68 185.72 C 660.03 176.64 661.28 164.33 661.21 153.05 C 660.88 141.92 659.87 129.59 652.04 120.94 C 645.71 113.87 635.42 112.31 626.46 113.69 Z" />
<path fill="#999999" opacity="1.00" d=" M 771.47 89.40 C 779.03 85.50 788.27 85.83 796.08 88.80 C 799.74 90.18 799.45 94.73 799.74 97.93 C 799.77 104.84 800.44 111.96 798.54 118.69 C 797.84 121.35 794.65 121.54 792.53 120.59 C 787.16 118.74 781.09 116.95 775.64 119.52 C 767.18 123.51 761.64 131.60 756.88 139.32 C 756.55 164.18 756.92 189.08 756.70 213.95 C 756.79 215.76 755.36 217.17 753.76 217.72 C 749.37 219.30 744.61 219.22 740.02 219.31 C 735.13 219.19 730.01 219.40 725.42 217.49 C 723.59 216.83 722.75 214.90 722.93 213.06 C 722.91 173.68 722.91 134.30 722.93 94.92 C 722.32 90.90 726.75 89.51 729.89 89.22 C 735.96 88.65 742.27 88.36 748.23 89.90 C 750.03 90.43 751.82 91.89 751.72 93.96 C 751.91 98.99 751.73 104.04 751.78 109.08 C 757.19 101.54 763.16 93.88 771.47 89.40 Z" />
<path fill="#999999" opacity="1.00" d=" M 881.10 87.74 C 894.69 84.92 910.10 86.80 920.97 96.02 C 933.34 106.19 938.40 122.45 940.16 137.83 C 941.94 155.24 941.05 173.37 934.66 189.83 C 930.25 201.24 922.12 211.59 910.88 216.85 C 901.63 221.24 890.98 222.46 880.90 220.89 C 870.40 219.10 861.76 212.24 854.26 205.08 C 854.23 223.74 854.31 242.41 854.23 261.07 C 854.51 263.58 852.29 265.31 850.10 265.88 C 844.90 267.41 839.39 267.27 834.02 267.19 C 830.05 266.94 825.80 266.87 822.28 264.81 C 820.59 263.86 820.34 261.81 820.41 260.08 C 820.46 204.76 820.35 149.45 820.47 94.13 C 820.29 91.05 823.62 89.79 826.14 89.41 C 831.73 88.56 837.48 88.57 843.08 89.37 C 845.29 89.81 848.25 90.48 848.84 93.03 C 849.27 98.09 848.89 103.18 849.03 108.25 C 857.97 99.17 868.32 90.49 881.10 87.74 M 872.51 117.68 C 864.98 121.46 859.32 127.96 854.27 134.53 C 854.24 147.69 854.28 160.86 854.25 174.02 C 859.58 180.48 865.21 187.20 872.87 190.95 C 881.08 194.92 891.73 192.46 897.13 185.03 C 904.81 174.83 906.27 161.33 905.60 148.93 C 904.97 139.04 903.26 128.25 896.06 120.86 C 890.11 114.56 880.00 114.00 872.51 117.68 Z" />
<path fill="#999999" opacity="1.00" d=" M 1121.13 110.09 C 1129.80 97.15 1144.53 89.01 1159.87 87.21 C 1175.26 85.39 1191.98 87.00 1205.06 96.00 C 1215.45 102.99 1222.02 114.55 1224.57 126.64 C 1226.40 134.60 1226.70 142.81 1226.54 150.95 C 1226.46 154.27 1225.80 157.94 1223.19 160.25 C 1221.00 162.27 1217.90 162.68 1215.05 162.65 C 1191.13 162.64 1167.21 162.65 1143.29 162.65 C 1143.44 170.79 1144.70 179.48 1149.97 186.02 C 1154.73 192.05 1162.39 194.98 1169.86 195.72 C 1183.37 197.04 1197.04 194.55 1209.68 189.79 C 1212.32 188.92 1215.04 187.53 1217.90 188.05 C 1220.29 188.83 1220.50 191.76 1220.75 193.87 C 1220.95 198.90 1221.26 204.07 1220.02 208.99 C 1218.79 213.04 1214.35 214.23 1210.85 215.57 C 1196.16 220.43 1180.50 222.25 1165.08 221.29 C 1150.71 220.35 1135.72 216.13 1125.32 205.67 C 1114.58 195.04 1110.41 179.68 1109.33 165.01 C 1107.95 146.18 1110.27 126.05 1121.13 110.09 M 1153.13 116.13 C 1146.22 122.34 1143.88 131.95 1143.30 140.88 C 1160.14 140.88 1176.99 140.89 1193.83 140.88 C 1193.90 133.69 1193.04 126.12 1189.06 119.95 C 1186.35 115.58 1181.83 112.46 1176.84 111.30 C 1168.78 109.38 1159.46 110.38 1153.13 116.13 Z" />
<path fill="#999999" opacity="1.00" d=" M 1430.46 87.73 C 1443.54 85.41 1457.29 86.42 1469.78 91.01 C 1473.46 92.57 1478.34 94.35 1478.88 98.96 C 1479.71 104.83 1479.95 110.95 1478.70 116.78 C 1478.27 119.18 1475.39 119.85 1473.52 118.67 C 1465.49 114.66 1457.01 110.95 1447.92 110.54 C 1442.44 110.26 1436.44 110.52 1431.86 113.89 C 1427.11 117.33 1425.75 124.81 1429.37 129.52 C 1432.61 133.58 1437.52 135.69 1442.19 137.65 C 1453.08 142.04 1464.79 145.36 1474.00 152.97 C 1480.66 158.34 1485.09 166.41 1485.94 174.93 C 1486.76 183.06 1485.78 191.57 1481.97 198.88 C 1478.02 206.65 1471.02 212.54 1463.14 216.06 C 1445.55 223.50 1425.11 223.15 1407.23 216.85 C 1402.68 214.98 1396.75 213.04 1395.65 207.55 C 1394.49 201.36 1394.32 194.79 1395.84 188.65 C 1396.48 185.74 1400.06 185.66 1402.15 187.06 C 1410.81 191.79 1420.03 196.23 1430.04 196.88 C 1436.21 197.25 1442.90 196.83 1448.17 193.24 C 1452.39 190.47 1454.03 184.91 1453.02 180.12 C 1452.01 175.95 1448.36 173.14 1444.81 171.14 C 1436.93 166.97 1428.22 164.68 1420.24 160.74 C 1411.30 156.65 1402.60 150.50 1398.58 141.20 C 1393.06 128.28 1394.72 111.91 1404.30 101.29 C 1411.01 93.76 1420.70 89.57 1430.46 87.73 Z" />
<path fill="#999999" opacity="1.00" d=" M 1255.74 90.80 C 1259.85 88.83 1264.55 89.00 1269.01 88.81 C 1274.19 88.85 1279.59 88.61 1284.54 90.41 C 1286.48 91.01 1287.68 92.95 1287.44 94.97 C 1287.66 119.96 1287.06 144.97 1287.75 169.95 C 1288.18 176.00 1289.93 182.27 1294.10 186.84 C 1299.83 192.89 1309.66 193.64 1316.80 189.75 C 1323.86 185.92 1329.31 179.82 1334.45 173.77 C 1334.47 147.22 1334.37 120.66 1334.50 94.11 C 1334.41 90.78 1338.23 89.85 1340.85 89.43 C 1347.79 88.52 1354.91 88.51 1361.87 89.48 C 1364.67 89.86 1368.46 91.32 1368.00 94.83 C 1367.99 134.58 1368.09 174.34 1367.95 214.09 C 1368.06 217.23 1364.56 218.34 1362.05 218.73 C 1356.39 219.51 1350.59 219.55 1344.95 218.72 C 1342.71 218.30 1339.72 217.50 1339.30 214.89 C 1338.90 209.98 1339.26 205.04 1339.14 200.12 C 1331.69 207.98 1323.08 215.17 1312.76 218.88 C 1304.06 222.10 1294.46 222.17 1285.45 220.37 C 1275.59 218.35 1266.54 212.26 1261.38 203.57 C 1255.55 194.17 1254.17 182.86 1253.84 172.03 C 1253.62 146.69 1253.82 121.35 1253.73 96.01 C 1253.68 94.12 1253.72 91.70 1255.74 90.80 Z" />
</g>
<g id="#455ca3ff">
<path fill="#455ca3" opacity="1.00" d=" M 184.52 45.62 C 191.37 44.14 198.71 46.61 203.89 51.18 C 208.39 55.13 210.31 60.99 212.73 66.28 C 216.86 77.14 227.37 84.66 238.44 87.23 C 246.78 89.27 254.93 85.85 262.97 84.11 C 270.49 82.12 278.37 85.05 284.45 89.48 C 291.09 94.31 293.76 102.43 297.67 109.31 C 302.12 117.11 300.11 128.46 292.13 133.14 C 285.44 136.62 277.59 137.17 271.04 140.98 C 263.23 145.72 259.73 155.27 259.57 164.05 C 259.51 175.76 267.34 185.29 270.44 196.17 C 271.68 201.18 271.82 206.58 270.36 211.56 C 266.74 219.51 259.48 225.51 251.11 227.89 C 242.33 232.12 231.70 233.31 222.66 229.20 C 215.72 225.11 210.61 218.34 208.06 210.74 C 205.67 203.58 202.10 196.69 201.36 189.09 C 200.28 179.56 206.22 169.77 215.10 166.21 C 221.72 163.61 228.79 162.20 235.27 159.24 C 244.30 154.94 249.60 144.70 248.90 134.87 C 248.45 126.44 243.73 119.17 240.52 111.61 C 235.33 99.78 222.75 91.97 209.97 91.68 C 202.08 91.96 194.69 95.11 186.94 96.31 C 179.25 97.52 171.07 94.89 165.43 89.55 C 161.43 85.73 159.83 80.29 157.92 75.26 C 156.47 71.30 154.68 67.23 155.04 62.91 C 155.50 56.26 160.92 50.51 167.36 49.12 C 173.06 47.86 178.82 46.91 184.52 45.62 Z" />
</g>
<g id="#b5232bff">
<path fill="#b5232b" opacity="1.00" d=" M 122.45 59.66 C 131.42 57.78 141.71 61.58 146.56 69.52 C 150.42 76.38 151.33 84.60 155.86 91.14 C 161.87 99.84 172.47 104.89 182.97 104.80 C 191.58 104.82 199.57 100.99 208.01 99.83 C 215.06 99.26 222.03 102.17 227.49 106.48 C 233.84 111.51 235.88 119.71 239.26 126.71 C 244.00 136.12 240.09 148.83 230.73 153.75 C 222.56 157.73 213.02 158.36 205.33 163.39 C 195.31 170.04 190.49 183.09 192.69 194.76 C 194.47 204.31 199.36 212.96 201.34 222.46 C 202.20 228.17 201.87 234.26 199.65 239.63 C 195.69 245.73 190.31 251.04 184.02 254.73 C 178.88 257.23 173.36 258.83 168.09 261.04 C 157.77 263.52 145.56 262.11 137.84 254.18 C 131.04 247.13 129.78 237.05 127.12 228.04 C 125.17 221.62 124.25 214.49 126.88 208.12 C 130.01 201.08 134.87 194.30 142.06 191.00 C 152.31 186.55 164.26 185.49 173.07 178.10 C 183.14 169.43 187.30 154.18 182.19 141.77 C 179.19 134.44 177.45 126.19 171.66 120.40 C 164.47 113.14 154.18 108.66 143.88 109.39 C 135.64 109.98 127.86 113.07 119.76 114.49 C 112.17 115.70 104.34 113.18 98.15 108.84 C 92.56 104.71 91.47 97.50 89.63 91.28 C 88.10 86.15 86.56 80.33 89.23 75.30 C 92.47 69.71 97.61 64.65 104.17 63.40 C 110.30 62.35 116.37 61.00 122.45 59.66 Z" />
</g>
</svg>
